# xmcd
#
# Track frame offsets: 
#        150
#        15201
#        30836
#        43783
#        60469
#        76527
#        89203
#        105763
#        123164
#        138926
#        161151
#        171090
#
# Disc length: 2510 seconds
#
# Revision: 0
# Processed by: cddbd v1.5.2PL0 Copyright (c) Steve Scherf et al.
# Submitted via: ExactAudioCopyFreeDBPlugin 1.0
#
DISCID=7f09cc0c
DTITLE=Becky Buller - ‘Tween Earth and Sky
DYEAR=2014
DGENRE=Bluegrass
TTITLE0=Nothin' to You
TTITLE1=Home
TTITLE2=I Prayed for You
TTITLE3=For a Lifetime
TTITLE4=Southern Flavor
TTITLE5=Queen of the Mountain Bootleggers
TTITLE6=I Serve a God
TTITLE7=American Corner
TTITLE8=Amos and Sarah
TTITLE9=Didn't Die
TTITLE10=Thank You
TTITLE11=Make Us to Shine
EXTD=
EXTT0=
EXTT1=
EXTT2=
EXTT3=
EXTT4=
EXTT5=
EXTT6=
EXTT7=
EXTT8=
EXTT9=
EXTT10=
EXTT11=
PLAYORDER=
